# xmcd
#
# Track frame offsets:
#	150
#	19980
#	38252
#	53650
#	67042
#	91000
#	110235
#	129735
#	156735
#	175517
#	197217
#	221505
#	237925
#	257047
#	276965
#
# Disc length: 3974 seconds
#
# Revision: 1
# Processed by: cddbd v1.5.2PL0 Copyright (c) Steve Scherf et al.
# Submitted via: audiograbber 1.83.01
#
DISCID=d80f840f
DTITLE=Cafe de Soul - Vol.1
DYEAR=1900
DGENRE=
TTITLE0=Delilah Harris - Lessons in Life
TTITLE1=Remi - In the heat of the night
TTITLE2=Joseph Diamond feat. Jesse Robinson - Only takes a minute
TTITLE3=Darrius - Blissful
TTITLE4=Leena Conquest feat. Roy Ayers - The Breeze
TTITLE5=Harvey Hubert - Let´s be one
TTITLE6=Dianne Johnson - Call me up
TTITLE7=Marqo - Absolutely nothing
TTITLE8=Ski Johnson feat. Tony Terry - Sailing
TTITLE9=Nanette Maxine - Don´t take me for granted
TTITLE10=Nichelle - Nothing remains the same
TTITLE11=Joseph Diamond feat. Carolyn Dyer - Hold onto you
TTITLE12=Chandaleigh - Bright sunshine
TTITLE13=Remi - Coco Bella
TTITLE14=??? - ?? ?? ??
EXTD=
EXTT0=
EXTT1=
EXTT2=
EXTT3=
EXTT4=
EXTT5=
EXTT6=
EXTT7=
EXTT8=
EXTT9=
EXTT10=
EXTT11=
EXTT12=
EXTT13=
EXTT14=
PLAYORDER=
